{"title":"Big Tits At Work - Kortney Kane (XXX)(iPod,PSP,Zune)","uid":6353965,"size":136791668,"categoryP":"porn","categoryS":"movie_clips","magnet":"?xt=urn:btih:c123aacde348b7c342e844e6e03da342c49e1a44&amp;dn=Big+Tits+At+Work+-+Kortney+Kane+%28XXX%29%28iPod%2CPSP%2CZune%29&amp;tr=udp%3A%2F%2Ftracker.openbittorrent.com%3A80&amp;tr=udp%3A%2F%2Fopen.demonii.com%3A1337&amp;tr=udp%3A%2F%2Ftracker.coppersurfer.tk%3A6969&amp;tr=udp%3A%2F%2Fexodus.desync.com%3A6969","seeders":0,"leechers":1,"uploader":null,"files":1,"time":1304087828,"description":"SCREENSHOTS:\n &lt;a href=&quot;\nhttp://lnk.co/GQ9Q8&quot; rel=&quot;nofollow&quot; target=&quot;_NEW&quot;&gt;\nhttp://lnk.co/GQ9Q8&lt;/a&gt;\n\nVideo\nID                               : 1\nFormat                           : AVC\nFormat/Info                      : Advanced Video Codec\nFormat profile                   : &lt;a class=&quot;__cf_email__&quot; href=&quot;/cdn-cgi/l/email-protection&quot; data-cfemail=&quot;9fddfeecfaf3f6f1fadfd3adb1ae&quot;&gt;[email&amp;#160;protected]&lt;/a&gt;&lt;script cf-hash='f9e31' type=&quot;text/javascript&quot;&gt;\n/* &lt;![CDATA[ */!function(){try{var t=&quot;currentScript&quot;in document?document.currentScript:function(){for(var t=document.getElementsByTagName(&quot;script&quot;),e=t.length;e--;)if(t[e].getAttribute(&quot;cf-hash&quot;))return t[e]}();if(t&amp;&amp;t.previousSibling){var e,r,n,i,c=t.previousSibling,a=c.getAttribute(&quot;data-cfemail&quot;);if(a){for(e=&quot;&quot;,r=parseInt(a.substr(0,2),16),n=2;a.length-n;n+=2)i=parseInt(a.substr(n,2),16)^r,e+=String.fromCharCode(i);e=document.createTextNode(e),c.parentNode.replaceChild(e,c)}}}catch(u){}}();/* ]]&gt; */&lt;/script&gt;\nFormat settings, CABAC           : No\nFormat settings, ReFrames        : 2 frames\nCodec ID                         : avc1\nCodec ID/Info                    : Advanced Video Coding\nDuration                         : 38mn 59s\nBit rate mode                    : Variable\nBit rate                         : 400 Kbps\nWidth                            : 480 pixels\nHeight                           : 272 pixels\nDisplay aspect ratio             : 16:9\nFrame rate mode                  : Variable\nFrame rate                       : 23.976 fps\nMinimum frame rate               : 23.974 fps\nMaximum frame rate               : 23.981 fps\nColor space                      : YUV\nChroma subsampling               : 4:2:0\nBit depth                        : 8 bits\nScan type                        : Progressive\nBits/(Pixel*Frame)               : 0.128\nStream size                      : 112 MiB (86%)\nWriting library                  : x264 core 112\n\nAudio\nID                               : 2\nFormat                           : AAC\nFormat/Info                      : Advanced Audio Codec\nFormat profile                   : LC\nCodec ID                         : 40\nDuration                         : 38mn 59s\nBit rate mode                    : Variable\nBit rate                         : 64.2 Kbps\nMaximum bit rate                 : 77.4 Kbps\nChannel(s)                       : 2 channels\nChannel positions                : Front: L R\nSampling rate                    : 48.0 KHz\nCompression mode                 : Lossy\nStream size                      : 17.9 MiB (14%)\nLanguage                         : English\n\nencoded for iPod,PSP,Zune and other handheld devices...:)","torrent":{"xt":"urn:btih:c123aacde348b7c342e844e6e03da342c49e1a44","amp;dn":"Big+Tits+At+Work+-+Kortney+Kane+%28XXX%29%28iPod%2CPSP%2CZune%29","amp;tr":["udp%3A%2F%2Ftracker.openbittorrent.com%3A80","udp%3A%2F%2Fopen.demonii.com%3A1337","udp%3A%2F%2Ftracker.coppersurfer.tk%3A6969","udp%3A%2F%2Fexodus.desync.com%3A6969"],"infoHash":"c123aacde348b7c342e844e6e03da342c49e1a44","infoHashBuffer":{"type":"Buffer","data":[193,35,170,205,227,72,183,195,66,232,68,230,224,61,163,66,196,158,26,68]},"announce":[],"urlList":[]}}